<?xml version="1.0" encoding="utf-8"?>
<!-- Generator: Adobe Illustrator 25.3.1, SVG Export Plug-In . SVG Version: 6.00 Build 0)  -->
<svg version="1.1" id="Ebene_1" xmlns="http://www.w3.org/2000/svg" xmlns:xlink="http://www.w3.org/1999/xlink" x="0px" y="0px"
	 viewBox="0 0 235.956 48.189" style="enable-background:new 0 0 235.956 48.189;" xml:space="preserve">
<style type="text/css">
	.st0{fill:#000050;}
	.st1{fill:#009BAC;}
</style>
<g>
	<g>
		<path class="st0" d="M21.602,45.354c-0.272,0-0.492-0.221-0.492-0.493c0-0.156,0.074-0.298,0.188-0.388l10.004-7.384l-26.27,0.005
			c-0.276,0-0.495-0.221-0.495-0.495c0-0.166,0.084-0.313,0.211-0.404l13.74-10.127c0.089-0.09,0.214-0.144,0.349-0.144h10.654
			c2.388,0.088,3.662,0.342,4.399,0.827c0.896,0.595,1.16,1.282,1.325,1.732c1.186,3.262,2.721,13.658,2.793,14.165
			c0.076-0.507,1.607-10.903,2.795-14.165c0.168-0.45,0.431-1.136,1.328-1.732c0.736-0.485,2.008-0.74,4.396-0.827H72.65
			c0.272,0,0.496,0.221,0.496,0.493c0,0.172-0.09,0.321-0.221,0.411L48.013,45.253c-0.085,0.065-0.189,0.101-0.299,0.101H21.602z"/>
		<path class="st1" d="M70.982,11.096c0.273,0,0.494,0.218,0.494,0.493c0,0.167-0.084,0.313-0.21,0.404l-13.83,10.18
			c-0.08,0.058-0.178,0.088-0.284,0.088h-10.65c-2.393-0.085-3.666-0.339-4.4-0.827c-0.895-0.593-1.16-1.279-1.325-1.732
			c-1.189-3.259-2.722-13.656-2.794-14.162c-0.075,0.506-1.609,10.903-2.795,14.162c-0.168,0.453-0.432,1.138-1.327,1.732
			c-0.735,0.488-2.01,0.743-4.397,0.827L3.329,22.269c-0.271,0-0.494-0.221-0.494-0.493c0-0.149,0.067-0.283,0.175-0.372
			l0.793-0.588l24.17-17.873c0.087-0.067,0.195-0.108,0.311-0.108h26.113c0.276,0,0.496,0.221,0.496,0.496
			c0,0.161-0.08,0.303-0.201,0.395L44.69,11.099L70.982,11.096z"/>
	</g>
	<path class="st1" d="M113.582,37.76l-6.863-14.08l-6.823,14.08h-0.946L87.314,11.098h8.282l4.852,11.24h0.157l5.641-11.674h0.907
		l5.876,11.674h0.158l4.771-11.24h8.204L114.528,37.76H113.582z"/>
	<path class="st1" d="M135.786,11.098v25.991h-7.73V11.098H135.786z"/>
	<path class="st1" d="M148.248,31.252h11.161v5.837h-18.892V11.098h18.34v5.798h-10.609v3.983h9.229v5.562h-9.229V31.252z"/>
	<path class="st1" d="M208.747,11.098v25.991h-7.729V11.098H208.747z"/>
	<path class="st1" d="M233.121,11.059v5.837h-7.1v20.193h-7.73V16.896h-7.06v-5.837H233.121z"/>
	<polygon class="st1" points="179.286,11.099 179.286,22.908 179.129,22.908 164.498,10.428 163.195,10.428 163.195,37.088 
		170.925,37.088 170.925,25.198 171.081,25.198 185.714,37.68 187.016,37.68 187.016,11.099 	"/>
</g>
</svg>
